<!DOCTYPE svg PUBLIC "-//W3C//DTD SVG 1.1//EN" "http://www.w3.org/Graphics/SVG/1.1/DTD/svg11.dtd">
<!-- Uploaded to: SVG Repo, www.svgrepo.com, Transformed by: SVG Repo Mixer Tools -->
<svg fill="#e19209" width="800px" height="800px" viewBox="0 0 512 512" xmlns="http://www.w3.org/2000/svg" stroke="#e19209">
<g id="SVGRepo_bgCarrier" stroke-width="0"/>
<g id="SVGRepo_tracerCarrier" stroke-linecap="round" stroke-linejoin="round"/>
<g id="SVGRepo_iconCarrier">
<title>ionicons-v5-o</title>
<path d="M160,240H320V96a16,16,0,0,0-16-16H64A16,16,0,0,0,48,96V416a16,16,0,0,0,16,16H304a16,16,0,0,0,16-16V272H160Z"/>
<path d="M459.31,244.69,368,153.37,345.37,176l64,64H320v32h89.37l-64,64L368,358.63l91.31-91.32a16,16,0,0,0,0-22.62Z"/>
</g>
</svg>